<svg width="51" height="51" viewBox="0 0 51 51" fill="none" xmlns="http://www.w3.org/2000/svg">
<rect width="51" height="51" rx="25.5" fill="#EC6608"/>
<path fill-rule="evenodd" clip-rule="evenodd" d="M22.7862 21.711H27.4287V24.0235C28.0975 22.6935 29.8125 21.4985 32.3888 21.4985C37.3275 21.4985 38.5 24.146 38.5 29.0035V37.9998H33.5V30.1098C33.5 27.3435 32.8313 25.7835 31.1288 25.7835C28.7675 25.7835 27.7862 27.4648 27.7862 30.1085V37.9998H22.7862V21.711V21.711ZM14.2125 37.7873H19.2125V21.4985H14.2125V37.7873V37.7873ZM19.9288 16.1873C19.9289 16.6063 19.8458 17.0213 19.6842 17.408C19.5226 17.7947 19.2858 18.1454 18.9875 18.4398C18.383 19.0405 17.5648 19.3768 16.7125 19.3748C15.8617 19.3742 15.0454 19.0388 14.44 18.441C14.1428 18.1456 13.9067 17.7945 13.7454 17.4078C13.5841 17.0211 13.5007 16.6063 13.5 16.1873C13.5 15.341 13.8375 14.531 14.4413 13.9335C15.0461 13.335 15.8628 12.9994 16.7138 12.9998C17.5663 12.9998 18.3837 13.336 18.9875 13.9335C19.59 14.531 19.9288 15.341 19.9288 16.1873Z" fill="white"/>
</svg>
