<svg width="40" height="39" viewBox="0 0 40 39" fill="none" xmlns="http://www.w3.org/2000/svg">
<g clip-path="url(#clip0_829_37126)">
<path fill-rule="evenodd" clip-rule="evenodd" d="M27.5867 35.9661C25.1867 35.88 18.3851 34.9635 11.2617 28.0199C4.14008 21.0746 3.20175 14.4446 3.11175 12.103C2.97841 8.53451 5.78175 5.06839 9.02008 3.71476C9.41004 3.55059 9.83708 3.48808 10.2593 3.53337C10.6815 3.57867 11.0844 3.73022 11.4284 3.97314C14.0951 5.86789 15.9351 8.73439 17.5151 10.9883C17.8627 11.4835 18.0114 12.086 17.9327 12.6812C17.854 13.2763 17.5535 13.8225 17.0884 14.2155L13.8367 16.5701C13.6797 16.6807 13.5691 16.8432 13.5255 17.0273C13.482 17.2114 13.5085 17.4046 13.6001 17.5711C14.3367 18.876 15.6467 20.8195 17.1467 22.282C18.6484 23.7445 20.7351 25.1063 22.1667 25.9058C22.3463 26.004 22.5575 26.0315 22.7572 25.9825C22.9568 25.9335 23.1296 25.8119 23.2401 25.6425L25.3567 22.5014C25.7459 21.9974 26.32 21.6598 26.9587 21.5592C27.5975 21.4586 28.2513 21.6029 28.7834 21.9619C31.1284 23.5446 33.8651 25.3078 35.8684 27.8086C36.1378 28.1465 36.3091 28.5487 36.3646 28.9732C36.42 29.3977 36.3574 29.8289 36.1834 30.2218C34.7884 33.3954 31.2584 36.0978 27.5867 35.9661Z" fill="#333333"/>
</g>
<defs>
<clipPath id="clip0_829_37126">
<rect width="40" height="39" fill="white"/>
</clipPath>
</defs>
</svg>
