<svg width="45" height="45" viewBox="0 0 45 45" fill="none" xmlns="http://www.w3.org/2000/svg">
<g clip-path="url(#clip0_829_37159)">
<path d="M22.5003 4.6875C23.2462 4.6875 23.9616 4.98382 24.489 5.51126C25.0165 6.03871 25.3128 6.75408 25.3128 7.5V17.6288L34.084 12.5625C34.7297 12.1954 35.4943 12.0986 36.211 12.2932C36.9278 12.4878 37.5385 12.958 37.9098 13.6012C38.2812 14.2444 38.383 15.0083 38.1932 15.7263C38.0034 16.4444 37.5373 17.0581 36.8965 17.4338L28.1253 22.5L36.8965 27.5644C37.5373 27.94 38.0034 28.5538 38.1932 29.2718C38.383 29.9898 38.2812 30.7538 37.9098 31.397C37.5385 32.0401 36.9278 32.5103 36.211 32.7049C35.4943 32.8995 34.7297 32.8027 34.084 32.4356L25.3128 27.3731V37.5C25.3128 38.2459 25.0165 38.9613 24.489 39.4887C23.9616 40.0162 23.2462 40.3125 22.5003 40.3125C21.7544 40.3125 21.039 40.0162 20.5116 39.4887C19.9841 38.9613 19.6878 38.2459 19.6878 37.5V27.3712L10.9165 32.4375C10.5966 32.6251 10.2426 32.7475 9.87515 32.7978C9.50766 32.848 9.13385 32.8251 8.77526 32.7303C8.41667 32.6355 8.08037 32.4707 7.78573 32.2454C7.49109 32.0201 7.24392 31.7387 7.05846 31.4175C6.873 31.0963 6.75291 30.7415 6.7051 30.3737C6.65729 30.0059 6.68271 29.6323 6.77989 29.2743C6.87708 28.9163 7.0441 28.5812 7.27136 28.288C7.49861 27.9949 7.78161 27.7496 8.10405 27.5662L16.8753 22.5L8.10405 17.4356C7.46334 17.06 6.99721 16.4462 6.80738 15.7282C6.61755 15.0102 6.71942 14.2462 7.09078 13.603C7.46213 12.9599 8.07281 12.4897 8.78955 12.2951C9.5063 12.1005 10.2709 12.1973 10.9165 12.5644L19.6878 17.6269V7.5C19.6878 6.75408 19.9841 6.03871 20.5116 5.51126C21.039 4.98382 21.7544 4.6875 22.5003 4.6875Z" fill="#EC6608"/>
</g>
<defs>
<clipPath id="clip0_829_37159">
<rect width="45" height="45" fill="white"/>
</clipPath>
</defs>
</svg>
