<svg width="34" height="34" viewBox="0 0 34 34" fill="none" xmlns="http://www.w3.org/2000/svg">
<path fill-rule="evenodd" clip-rule="evenodd" d="M2.25244 16.8228C2.25244 16.549 2.36119 16.2865 2.55477 16.0929C2.74836 15.8993 3.01091 15.7906 3.28467 15.7906H27.6308L21.134 9.29579C20.9402 9.10196 20.8313 8.83908 20.8313 8.56497C20.8313 8.29086 20.9402 8.02797 21.134 7.83415C21.3278 7.64032 21.5907 7.53143 21.8648 7.53143C22.1389 7.53143 22.4018 7.64032 22.5956 7.83415L30.8535 16.092C30.9496 16.1879 31.0259 16.3018 31.0779 16.4272C31.1299 16.5526 31.1567 16.687 31.1567 16.8228C31.1567 16.9586 31.1299 17.093 31.0779 17.2184C31.0259 17.3438 30.9496 17.4577 30.8535 17.5536L22.5956 25.8115C22.4018 26.0053 22.1389 26.1142 21.8648 26.1142C21.5907 26.1142 21.3278 26.0053 21.134 25.8115C20.9402 25.6176 20.8313 25.3547 20.8313 25.0806C20.8313 24.8065 20.9402 24.5436 21.134 24.3498L27.6308 17.855H3.28467C3.01091 17.855 2.74836 17.7463 2.55477 17.5527C2.36119 17.3591 2.25244 17.0966 2.25244 16.8228V16.8228Z" fill="white"/>
</svg>
