<svg width="40" height="39" viewBox="0 0 40 39" fill="none" xmlns="http://www.w3.org/2000/svg">
<path fill-rule="evenodd" clip-rule="evenodd" d="M15.7149 14.5743H21.9049V17.5805C22.7966 15.8515 25.0833 14.298 28.5183 14.298C35.1033 14.298 36.6666 17.7398 36.6666 24.0545V35.7496H29.9999V25.4926C29.9999 21.8965 29.1083 19.8685 26.8383 19.8685C23.6899 19.8685 22.3816 22.0541 22.3816 25.491V35.7496H15.7149V14.5743V14.5743ZM4.28325 35.4734H10.9499V14.298H4.28325V35.4734V35.4734ZM11.9049 7.39338C11.9052 7.93821 11.7943 8.47764 11.5789 8.98034C11.3634 9.48304 11.0477 9.93897 10.6499 10.3216C9.84392 11.1026 8.75294 11.5398 7.61659 11.5371C6.48223 11.5364 5.39377 11.1003 4.58659 10.3233C4.19027 9.93929 3.87556 9.48285 3.66049 8.98009C3.44542 8.47732 3.33422 7.93812 3.33325 7.39338C3.33325 6.29326 3.78325 5.24026 4.58825 4.46351C5.39473 3.68539 6.48365 3.24915 7.61825 3.24963C8.75492 3.24963 9.84492 3.68676 10.6499 4.46351C11.4533 5.24026 11.9049 6.29326 11.9049 7.39338Z" fill="#333333"/>
</svg>
